<mxfile host="65bd71144e">
    <diagram id="b-5QE7pGttqdsChsJ9C5" name="Page-1">
        <mxGraphModel dx="1160" dy="203" grid="1" gridSize="10" guides="1" tooltips="1" connect="1" arrows="1" fold="1" page="0" pageScale="1" pageWidth="850" pageHeight="1100" math="0" shadow="0">
            <root>
                <mxCell id="0"/>
                <mxCell id="1" parent="0"/>
                <mxCell id="3" value="Produit" style="swimlane;fontStyle=1;align=center;verticalAlign=top;childLayout=stackLayout;horizontal=1;startSize=26;horizontalStack=0;resizeParent=1;resizeParentMax=0;resizeLast=0;collapsible=1;marginBottom=0;" parent="1" vertex="1">
                    <mxGeometry x="520" y="760" width="160" height="250" as="geometry"/>
                </mxCell>
                <mxCell id="4" value="+id&#xa;+nom&#xa;+description&#xa;+prix&#xa;+quantity&#xa;+image_path&#xa;+tags&#xa;+categories : categories&#xa;" style="text;strokeColor=none;fillColor=none;align=left;verticalAlign=top;spacingLeft=4;spacingRight=4;overflow=hidden;rotatable=0;points=[[0,0.5],[1,0.5]];portConstraint=eastwest;" parent="3" vertex="1">
                    <mxGeometry y="26" width="160" height="144" as="geometry"/>
                </mxCell>
                <mxCell id="5" value="" style="line;strokeWidth=1;fillColor=none;align=left;verticalAlign=middle;spacingTop=-1;spacingLeft=3;spacingRight=3;rotatable=0;labelPosition=right;points=[];portConstraint=eastwest;" parent="3" vertex="1">
                    <mxGeometry y="170" width="160" height="8" as="geometry"/>
                </mxCell>
                <mxCell id="6" value="+AjouterProduit()&#xa;+ModifierProduit()&#xa;+SupprimerProduit()" style="text;strokeColor=none;fillColor=none;align=left;verticalAlign=top;spacingLeft=4;spacingRight=4;overflow=hidden;rotatable=0;points=[[0,0.5],[1,0.5]];portConstraint=eastwest;" parent="3" vertex="1">
                    <mxGeometry y="178" width="160" height="72" as="geometry"/>
                </mxCell>
                <mxCell id="7" value="commande_item" style="swimlane;fontStyle=1;align=center;verticalAlign=top;childLayout=stackLayout;horizontal=1;startSize=26;horizontalStack=0;resizeParent=1;resizeParentMax=0;resizeLast=0;collapsible=1;marginBottom=0;whiteSpace=wrap;html=1;" parent="1" vertex="1">
                    <mxGeometry x="295" y="1040" width="190" height="168" as="geometry"/>
                </mxCell>
                <mxCell id="8" value="+id&lt;br&gt;+quantitée" style="text;strokeColor=none;fillColor=none;align=left;verticalAlign=top;spacingLeft=4;spacingRight=4;overflow=hidden;rotatable=0;points=[[0,0.5],[1,0.5]];portConstraint=eastwest;whiteSpace=wrap;html=1;" parent="7" vertex="1">
                    <mxGeometry y="26" width="190" height="54" as="geometry"/>
                </mxCell>
                <mxCell id="9" value="" style="line;strokeWidth=1;fillColor=none;align=left;verticalAlign=middle;spacingTop=-1;spacingLeft=3;spacingRight=3;rotatable=0;labelPosition=right;points=[];portConstraint=eastwest;strokeColor=inherit;" parent="7" vertex="1">
                    <mxGeometry y="80" width="190" height="8" as="geometry"/>
                </mxCell>
                <mxCell id="10" value="+ ajouterProduit();&lt;br&gt;+ suprimmerProduit();&lt;br&gt;+ajuster la quentité des produits()" style="text;strokeColor=none;fillColor=none;align=left;verticalAlign=top;spacingLeft=4;spacingRight=4;overflow=hidden;rotatable=0;points=[[0,0.5],[1,0.5]];portConstraint=eastwest;whiteSpace=wrap;html=1;" parent="7" vertex="1">
                    <mxGeometry y="88" width="190" height="80" as="geometry"/>
                </mxCell>
                <mxCell id="11" value="Commande" style="swimlane;fontStyle=1;align=center;verticalAlign=top;childLayout=stackLayout;horizontal=1;startSize=26;horizontalStack=0;resizeParent=1;resizeParentMax=0;resizeLast=0;collapsible=1;marginBottom=0;" parent="1" vertex="1">
                    <mxGeometry x="110" y="850" width="160" height="150" as="geometry"/>
                </mxCell>
                <mxCell id="12" value="+id&#xa;+userName&#xa;+productName&#xa;+quantitée&#xa;+amount" style="text;strokeColor=none;fillColor=none;align=left;verticalAlign=top;spacingLeft=4;spacingRight=4;overflow=hidden;rotatable=0;points=[[0,0.5],[1,0.5]];portConstraint=eastwest;" parent="11" vertex="1">
                    <mxGeometry y="26" width="160" height="90" as="geometry"/>
                </mxCell>
                <mxCell id="13" value="" style="line;strokeWidth=1;fillColor=none;align=left;verticalAlign=middle;spacingTop=-1;spacingLeft=3;spacingRight=3;rotatable=0;labelPosition=right;points=[];portConstraint=eastwest;" parent="11" vertex="1">
                    <mxGeometry y="116" width="160" height="8" as="geometry"/>
                </mxCell>
                <mxCell id="14" value="+passer une commande()" style="text;strokeColor=none;fillColor=none;align=left;verticalAlign=top;spacingLeft=4;spacingRight=4;overflow=hidden;rotatable=0;points=[[0,0.5],[1,0.5]];portConstraint=eastwest;" parent="11" vertex="1">
                    <mxGeometry y="124" width="160" height="26" as="geometry"/>
                </mxCell>
                <mxCell id="15" value="user" style="swimlane;fontStyle=1;align=center;verticalAlign=top;childLayout=stackLayout;horizontal=1;startSize=26;horizontalStack=0;resizeParent=1;resizeParentMax=0;resizeLast=0;collapsible=1;marginBottom=0;" parent="1" vertex="1">
                    <mxGeometry x="110" y="465" width="160" height="190" as="geometry"/>
                </mxCell>
                <mxCell id="16" value="+id&#xa;+name&#xa;+email&#xa;+password" style="text;strokeColor=none;fillColor=none;align=left;verticalAlign=top;spacingLeft=4;spacingRight=4;overflow=hidden;rotatable=0;points=[[0,0.5],[1,0.5]];portConstraint=eastwest;" parent="15" vertex="1">
                    <mxGeometry y="26" width="160" height="74" as="geometry"/>
                </mxCell>
                <mxCell id="17" value="" style="line;strokeWidth=1;fillColor=none;align=left;verticalAlign=middle;spacingTop=-1;spacingLeft=3;spacingRight=3;rotatable=0;labelPosition=right;points=[];portConstraint=eastwest;strokeColor=inherit;" parent="15" vertex="1">
                    <mxGeometry y="100" width="160" height="8" as="geometry"/>
                </mxCell>
                <mxCell id="18" value="+search product()&#xa;+filtrage par categories()&#xa;+consulter la liste des produits()&#xa;+ajouter des produits aux panier()&#xa;+passer une commande()" style="text;strokeColor=none;fillColor=none;align=left;verticalAlign=top;spacingLeft=4;spacingRight=4;overflow=hidden;rotatable=0;points=[[0,0.5],[1,0.5]];portConstraint=eastwest;" parent="15" vertex="1">
                    <mxGeometry y="108" width="160" height="82" as="geometry"/>
                </mxCell>
                <mxCell id="24" value="Categories" style="swimlane;fontStyle=1;align=center;verticalAlign=top;childLayout=stackLayout;horizontal=1;startSize=26;horizontalStack=0;resizeParent=1;resizeParentMax=0;resizeLast=0;collapsible=1;marginBottom=0;" parent="1" vertex="1">
                    <mxGeometry x="520" y="480" width="160" height="160" as="geometry"/>
                </mxCell>
                <mxCell id="25" value="+id&#xa;+name&#xa;+image_path&#xa;" style="text;strokeColor=none;fillColor=none;align=left;verticalAlign=top;spacingLeft=4;spacingRight=4;overflow=hidden;rotatable=0;points=[[0,0.5],[1,0.5]];portConstraint=eastwest;" parent="24" vertex="1">
                    <mxGeometry y="26" width="160" height="64" as="geometry"/>
                </mxCell>
                <mxCell id="26" value="" style="line;strokeWidth=1;fillColor=none;align=left;verticalAlign=middle;spacingTop=-1;spacingLeft=3;spacingRight=3;rotatable=0;labelPosition=right;points=[];portConstraint=eastwest;" parent="24" vertex="1">
                    <mxGeometry y="90" width="160" height="8" as="geometry"/>
                </mxCell>
                <mxCell id="27" value="+AjouterCategorie()&#xa;+ModifierCategorie()&#xa;+SupprimerCategorie()" style="text;strokeColor=none;fillColor=none;align=left;verticalAlign=top;spacingLeft=4;spacingRight=4;overflow=hidden;rotatable=0;points=[[0,0.5],[1,0.5]];portConstraint=eastwest;" parent="24" vertex="1">
                    <mxGeometry y="98" width="160" height="62" as="geometry"/>
                </mxCell>
                <mxCell id="30" value="1..*" style="text;html=1;align=center;verticalAlign=middle;resizable=0;points=[];autosize=1;strokeColor=none;fillColor=none;" parent="1" vertex="1">
                    <mxGeometry x="480" y="500" width="40" height="30" as="geometry"/>
                </mxCell>
                <mxCell id="31" value="" style="endArrow=none;html=1;entryX=0.5;entryY=0;entryDx=0;entryDy=0;" parent="1" target="3" edge="1">
                    <mxGeometry width="50" height="50" relative="1" as="geometry">
                        <mxPoint x="600" y="640" as="sourcePoint"/>
                        <mxPoint x="600" y="710" as="targetPoint"/>
                    </mxGeometry>
                </mxCell>
                <mxCell id="32" value="1..1" style="text;html=1;align=center;verticalAlign=middle;resizable=0;points=[];autosize=1;strokeColor=none;fillColor=none;" parent="1" vertex="1">
                    <mxGeometry x="595" y="644" width="40" height="30" as="geometry"/>
                </mxCell>
                <mxCell id="33" value="1..*" style="text;html=1;align=center;verticalAlign=middle;resizable=0;points=[];autosize=1;strokeColor=none;fillColor=none;" parent="1" vertex="1">
                    <mxGeometry x="595" y="730" width="40" height="30" as="geometry"/>
                </mxCell>
                <mxCell id="34" value="" style="endArrow=none;html=1;exitX=0.563;exitY=0;exitDx=0;exitDy=0;exitPerimeter=0;entryX=0.562;entryY=1.041;entryDx=0;entryDy=0;entryPerimeter=0;" parent="1" source="11" target="18" edge="1">
                    <mxGeometry width="50" height="50" relative="1" as="geometry">
                        <mxPoint x="160" y="740" as="sourcePoint"/>
                        <mxPoint x="190" y="730" as="targetPoint"/>
                    </mxGeometry>
                </mxCell>
                <mxCell id="35" value="1..1" style="text;html=1;align=center;verticalAlign=middle;resizable=0;points=[];autosize=1;strokeColor=none;fillColor=none;" parent="1" vertex="1">
                    <mxGeometry x="150" y="660" width="40" height="30" as="geometry"/>
                </mxCell>
                <mxCell id="36" value="0..*" style="text;html=1;align=center;verticalAlign=middle;resizable=0;points=[];autosize=1;strokeColor=none;fillColor=none;" parent="1" vertex="1">
                    <mxGeometry x="140" y="820" width="40" height="30" as="geometry"/>
                </mxCell>
                <mxCell id="37" value="" style="endArrow=none;html=1;exitX=1;exitY=0.5;exitDx=0;exitDy=0;entryX=-0.007;entryY=0.954;entryDx=0;entryDy=0;entryPerimeter=0;" parent="1" source="12" target="4" edge="1">
                    <mxGeometry width="50" height="50" relative="1" as="geometry">
                        <mxPoint x="280" y="780" as="sourcePoint"/>
                        <mxPoint x="330" y="730" as="targetPoint"/>
                    </mxGeometry>
                </mxCell>
                <mxCell id="38" value="1..*&lt;br&gt;" style="text;html=1;align=center;verticalAlign=middle;resizable=0;points=[];autosize=1;strokeColor=none;fillColor=none;" parent="1" vertex="1">
                    <mxGeometry x="480" y="865" width="40" height="30" as="geometry"/>
                </mxCell>
                <mxCell id="39" value="" style="endArrow=none;dashed=1;html=1;exitX=0.45;exitY=-0.002;exitDx=0;exitDy=0;exitPerimeter=0;" parent="1" source="7" edge="1">
                    <mxGeometry width="50" height="50" relative="1" as="geometry">
                        <mxPoint x="330" y="970" as="sourcePoint"/>
                        <mxPoint x="380" y="920" as="targetPoint"/>
                    </mxGeometry>
                </mxCell>
                <mxCell id="40" value="1..*" style="text;html=1;align=center;verticalAlign=middle;resizable=0;points=[];autosize=1;strokeColor=none;fillColor=none;" parent="1" vertex="1">
                    <mxGeometry x="270" y="895" width="40" height="30" as="geometry"/>
                </mxCell>
                <mxCell id="43" value="role" style="swimlane;fontStyle=1;align=center;verticalAlign=top;childLayout=stackLayout;horizontal=1;startSize=26;horizontalStack=0;resizeParent=1;resizeParentMax=0;resizeLast=0;collapsible=1;marginBottom=0;whiteSpace=wrap;html=1;" parent="1" vertex="1">
                    <mxGeometry x="-230" y="483" width="160" height="124" as="geometry"/>
                </mxCell>
                <mxCell id="44" value="-id&lt;div&gt;-name&lt;/div&gt;&lt;div&gt;-description&lt;/div&gt;" style="text;strokeColor=none;fillColor=none;align=left;verticalAlign=top;spacingLeft=4;spacingRight=4;overflow=hidden;rotatable=0;points=[[0,0.5],[1,0.5]];portConstraint=eastwest;whiteSpace=wrap;html=1;" parent="43" vertex="1">
                    <mxGeometry y="26" width="160" height="64" as="geometry"/>
                </mxCell>
                <mxCell id="45" value="" style="line;strokeWidth=1;fillColor=none;align=left;verticalAlign=middle;spacingTop=-1;spacingLeft=3;spacingRight=3;rotatable=0;labelPosition=right;points=[];portConstraint=eastwest;strokeColor=inherit;" parent="43" vertex="1">
                    <mxGeometry y="90" width="160" height="8" as="geometry"/>
                </mxCell>
                <mxCell id="46" value="+ method(type): type" style="text;strokeColor=none;fillColor=none;align=left;verticalAlign=top;spacingLeft=4;spacingRight=4;overflow=hidden;rotatable=0;points=[[0,0.5],[1,0.5]];portConstraint=eastwest;whiteSpace=wrap;html=1;" parent="43" vertex="1">
                    <mxGeometry y="98" width="160" height="26" as="geometry"/>
                </mxCell>
                <mxCell id="47" value="" style="endArrow=none;html=1;entryX=0.011;entryY=0.846;entryDx=0;entryDy=0;entryPerimeter=0;exitX=1.041;exitY=0.727;exitDx=0;exitDy=0;exitPerimeter=0;" parent="1" source="44" target="16" edge="1">
                    <mxGeometry width="50" height="50" relative="1" as="geometry">
                        <mxPoint x="20" y="610" as="sourcePoint"/>
                        <mxPoint x="70" y="560" as="targetPoint"/>
                    </mxGeometry>
                </mxCell>
                <mxCell id="48" value="1" style="text;html=1;align=center;verticalAlign=middle;resizable=0;points=[];autosize=1;strokeColor=none;fillColor=none;" parent="1" vertex="1">
                    <mxGeometry x="-70" y="520" width="30" height="30" as="geometry"/>
                </mxCell>
                <mxCell id="49" value="0..*" style="text;html=1;align=center;verticalAlign=middle;resizable=0;points=[];autosize=1;strokeColor=none;fillColor=none;" parent="1" vertex="1">
                    <mxGeometry x="70" y="530" width="40" height="30" as="geometry"/>
                </mxCell>
                <mxCell id="50" value="address" style="swimlane;fontStyle=1;align=center;verticalAlign=top;childLayout=stackLayout;horizontal=1;startSize=26;horizontalStack=0;resizeParent=1;resizeParentMax=0;resizeLast=0;collapsible=1;marginBottom=0;whiteSpace=wrap;html=1;" parent="1" vertex="1">
                    <mxGeometry x="-183" y="850" width="160" height="94" as="geometry"/>
                </mxCell>
                <mxCell id="51" value="-id&lt;div&gt;-name&lt;/div&gt;&lt;div&gt;&lt;br&gt;&lt;/div&gt;" style="text;strokeColor=none;fillColor=none;align=left;verticalAlign=top;spacingLeft=4;spacingRight=4;overflow=hidden;rotatable=0;points=[[0,0.5],[1,0.5]];portConstraint=eastwest;whiteSpace=wrap;html=1;" parent="50" vertex="1">
                    <mxGeometry y="26" width="160" height="34" as="geometry"/>
                </mxCell>
                <mxCell id="52" value="" style="line;strokeWidth=1;fillColor=none;align=left;verticalAlign=middle;spacingTop=-1;spacingLeft=3;spacingRight=3;rotatable=0;labelPosition=right;points=[];portConstraint=eastwest;strokeColor=inherit;" parent="50" vertex="1">
                    <mxGeometry y="60" width="160" height="8" as="geometry"/>
                </mxCell>
                <mxCell id="53" value="+ method(type): type" style="text;strokeColor=none;fillColor=none;align=left;verticalAlign=top;spacingLeft=4;spacingRight=4;overflow=hidden;rotatable=0;points=[[0,0.5],[1,0.5]];portConstraint=eastwest;whiteSpace=wrap;html=1;" parent="50" vertex="1">
                    <mxGeometry y="68" width="160" height="26" as="geometry"/>
                </mxCell>
                <mxCell id="54" value="" style="endArrow=none;html=1;exitX=0.578;exitY=0.022;exitDx=0;exitDy=0;exitPerimeter=0;entryX=0;entryY=0.5;entryDx=0;entryDy=0;" parent="1" source="50" target="18" edge="1">
                    <mxGeometry width="50" height="50" relative="1" as="geometry">
                        <mxPoint x="140" y="750" as="sourcePoint"/>
                        <mxPoint x="90" y="630" as="targetPoint"/>
                        <Array as="points">
                            <mxPoint x="-90" y="790"/>
                            <mxPoint x="80" y="790"/>
                            <mxPoint x="80" y="614"/>
                        </Array>
                    </mxGeometry>
                </mxCell>
                <mxCell id="55" value="1..*" style="text;html=1;align=center;verticalAlign=middle;resizable=0;points=[];autosize=1;strokeColor=none;fillColor=none;" parent="1" vertex="1">
                    <mxGeometry x="-150" y="808" width="40" height="30" as="geometry"/>
                </mxCell>
                <mxCell id="56" value="Text" style="text;html=1;align=center;verticalAlign=middle;resizable=0;points=[];autosize=1;strokeColor=none;fillColor=none;" parent="1" vertex="1">
                    <mxGeometry x="55" y="568" width="50" height="30" as="geometry"/>
                </mxCell>
            </root>
        </mxGraphModel>
    </diagram>
    <diagram id="MtO6bIn-Fu6uv-KNo9Qm" name="Page-2">
        <mxGraphModel dx="1180" dy="808" grid="1" gridSize="10" guides="1" tooltips="1" connect="1" arrows="1" fold="1" page="0" pageScale="1" pageWidth="850" pageHeight="1100" math="0" shadow="0">
            <root>
                <mxCell id="0"/>
                <mxCell id="1" parent="0"/>
                <mxCell id="lolXnOuSbKDtdb3UZbx4-1" value="youshope" style="shape=umlFrame;whiteSpace=wrap;html=1;fillColor=default;" vertex="1" parent="1">
                    <mxGeometry x="-130" y="-100" width="520" height="680" as="geometry"/>
                </mxCell>
                <mxCell id="lolXnOuSbKDtdb3UZbx4-2" value="consuletr les produis" style="ellipse;whiteSpace=wrap;html=1;" vertex="1" parent="1">
                    <mxGeometry x="52.75" y="-80" width="110" height="50" as="geometry"/>
                </mxCell>
                <mxCell id="lolXnOuSbKDtdb3UZbx4-3" value="voir les details de chaque produit" style="ellipse;whiteSpace=wrap;html=1;" vertex="1" parent="1">
                    <mxGeometry x="47.75" y="-24" width="110" height="50" as="geometry"/>
                </mxCell>
                <mxCell id="lolXnOuSbKDtdb3UZbx4-4" value="Ajouter et retirer des produit dans le&amp;nbsp; panier" style="ellipse;whiteSpace=wrap;html=1;" vertex="1" parent="1">
                    <mxGeometry x="5" y="170" width="140" height="61" as="geometry"/>
                </mxCell>
                <mxCell id="lolXnOuSbKDtdb3UZbx4-5" value="confirmer leur quantités&amp;nbsp;" style="ellipse;whiteSpace=wrap;html=1;" vertex="1" parent="1">
                    <mxGeometry x="20" y="239" width="110" height="50" as="geometry"/>
                </mxCell>
                <mxCell id="lolXnOuSbKDtdb3UZbx4-6" value="gestion des produits" style="ellipse;whiteSpace=wrap;html=1;" vertex="1" parent="1">
                    <mxGeometry x="26" y="370" width="120" height="53" as="geometry"/>
                </mxCell>
                <mxCell id="lolXnOuSbKDtdb3UZbx4-7" value="rendre les utilisateurs des admins" style="ellipse;whiteSpace=wrap;html=1;" vertex="1" parent="1">
                    <mxGeometry x="28.5" y="430" width="115" height="56" as="geometry"/>
                </mxCell>
                <mxCell id="lolXnOuSbKDtdb3UZbx4-8" value="gestion des cetégories" style="ellipse;whiteSpace=wrap;html=1;" vertex="1" parent="1">
                    <mxGeometry x="28.5" y="500" width="115" height="56" as="geometry"/>
                </mxCell>
                <mxCell id="lolXnOuSbKDtdb3UZbx4-9" value="LOGIN" style="ellipse;whiteSpace=wrap;html=1;" vertex="1" parent="1">
                    <mxGeometry x="300" y="189" width="80" height="50" as="geometry"/>
                </mxCell>
                <mxCell id="lolXnOuSbKDtdb3UZbx4-10" value="" style="endArrow=classic;html=1;" edge="1" parent="1">
                    <mxGeometry width="50" height="50" relative="1" as="geometry">
                        <mxPoint x="-175" y="410" as="sourcePoint"/>
                        <mxPoint x="-175" y="290" as="targetPoint"/>
                    </mxGeometry>
                </mxCell>
                <mxCell id="lolXnOuSbKDtdb3UZbx4-11" value="" style="endArrow=none;html=1;" edge="1" parent="1" source="lolXnOuSbKDtdb3UZbx4-29" target="lolXnOuSbKDtdb3UZbx4-4">
                    <mxGeometry width="50" height="50" relative="1" as="geometry">
                        <mxPoint x="-150" y="150" as="sourcePoint"/>
                        <mxPoint x="-75" y="215" as="targetPoint"/>
                    </mxGeometry>
                </mxCell>
                <mxCell id="lolXnOuSbKDtdb3UZbx4-12" value="" style="endArrow=none;html=1;entryX=0;entryY=0.5;entryDx=0;entryDy=0;" edge="1" parent="1" source="lolXnOuSbKDtdb3UZbx4-29" target="lolXnOuSbKDtdb3UZbx4-5">
                    <mxGeometry width="50" height="50" relative="1" as="geometry">
                        <mxPoint x="-150" y="150" as="sourcePoint"/>
                        <mxPoint x="-39.99999999999841" y="78" as="targetPoint"/>
                    </mxGeometry>
                </mxCell>
                <mxCell id="lolXnOuSbKDtdb3UZbx4-13" value="" style="endArrow=none;html=1;entryX=0;entryY=0.5;entryDx=0;entryDy=0;" edge="1" parent="1" source="lolXnOuSbKDtdb3UZbx4-33" target="lolXnOuSbKDtdb3UZbx4-6">
                    <mxGeometry width="50" height="50" relative="1" as="geometry">
                        <mxPoint x="-150" y="330" as="sourcePoint"/>
                        <mxPoint x="-140" y="610" as="targetPoint"/>
                    </mxGeometry>
                </mxCell>
                <mxCell id="lolXnOuSbKDtdb3UZbx4-14" value="" style="endArrow=none;html=1;entryX=0;entryY=0.5;entryDx=0;entryDy=0;" edge="1" parent="1" source="lolXnOuSbKDtdb3UZbx4-33" target="lolXnOuSbKDtdb3UZbx4-7">
                    <mxGeometry width="50" height="50" relative="1" as="geometry">
                        <mxPoint x="-150" y="329" as="sourcePoint"/>
                        <mxPoint x="-34.999999999998295" y="329" as="targetPoint"/>
                    </mxGeometry>
                </mxCell>
                <mxCell id="lolXnOuSbKDtdb3UZbx4-15" value="" style="endArrow=none;html=1;entryX=0;entryY=0.5;entryDx=0;entryDy=0;" edge="1" parent="1" source="lolXnOuSbKDtdb3UZbx4-33" target="lolXnOuSbKDtdb3UZbx4-8">
                    <mxGeometry width="50" height="50" relative="1" as="geometry">
                        <mxPoint x="-150" y="330" as="sourcePoint"/>
                        <mxPoint x="-24.999999999998295" y="339" as="targetPoint"/>
                    </mxGeometry>
                </mxCell>
                <mxCell id="lolXnOuSbKDtdb3UZbx4-16" value="" style="endArrow=none;html=1;entryX=0;entryY=0.5;entryDx=0;entryDy=0;" edge="1" parent="1" source="lolXnOuSbKDtdb3UZbx4-28" target="lolXnOuSbKDtdb3UZbx4-3">
                    <mxGeometry width="50" height="50" relative="1" as="geometry">
                        <mxPoint x="-150" as="sourcePoint"/>
                        <mxPoint x="-39.98928924726033" y="78.47235660824606" as="targetPoint"/>
                    </mxGeometry>
                </mxCell>
                <mxCell id="lolXnOuSbKDtdb3UZbx4-17" value="" style="endArrow=none;html=1;entryX=0.046;entryY=0.72;entryDx=0;entryDy=0;entryPerimeter=0;" edge="1" parent="1" source="lolXnOuSbKDtdb3UZbx4-28" target="lolXnOuSbKDtdb3UZbx4-2">
                    <mxGeometry width="50" height="50" relative="1" as="geometry">
                        <mxPoint x="-150" as="sourcePoint"/>
                        <mxPoint x="-29.98928924726033" y="88.47235660824606" as="targetPoint"/>
                    </mxGeometry>
                </mxCell>
                <mxCell id="lolXnOuSbKDtdb3UZbx4-18" value="extend" style="endArrow=open;endSize=12;dashed=1;html=1;exitX=0.93;exitY=0.225;exitDx=0;exitDy=0;exitPerimeter=0;entryX=0.344;entryY=1.015;entryDx=0;entryDy=0;entryPerimeter=0;" edge="1" parent="1" source="lolXnOuSbKDtdb3UZbx4-8" target="lolXnOuSbKDtdb3UZbx4-9">
                    <mxGeometry width="160" relative="1" as="geometry">
                        <mxPoint x="66.52999999999997" y="511.0500000000002" as="sourcePoint"/>
                        <mxPoint x="194.4000000000001" y="281.25" as="targetPoint"/>
                    </mxGeometry>
                </mxCell>
                <mxCell id="lolXnOuSbKDtdb3UZbx4-19" value="extend" style="endArrow=open;endSize=12;dashed=1;html=1;entryX=0;entryY=1;entryDx=0;entryDy=0;exitX=1;exitY=0.5;exitDx=0;exitDy=0;" edge="1" parent="1" source="lolXnOuSbKDtdb3UZbx4-7" target="lolXnOuSbKDtdb3UZbx4-9">
                    <mxGeometry width="160" relative="1" as="geometry">
                        <mxPoint x="60" y="370" as="sourcePoint"/>
                        <mxPoint x="170" y="260" as="targetPoint"/>
                    </mxGeometry>
                </mxCell>
                <mxCell id="lolXnOuSbKDtdb3UZbx4-20" value="extend" style="endArrow=open;endSize=12;dashed=1;html=1;exitX=1;exitY=0.5;exitDx=0;exitDy=0;entryX=0.075;entryY=0.76;entryDx=0;entryDy=0;entryPerimeter=0;" edge="1" parent="1" source="lolXnOuSbKDtdb3UZbx4-6" target="lolXnOuSbKDtdb3UZbx4-9">
                    <mxGeometry width="160" relative="1" as="geometry">
                        <mxPoint x="70" y="380" as="sourcePoint"/>
                        <mxPoint x="161" y="250" as="targetPoint"/>
                        <Array as="points">
                            <mxPoint x="230" y="310"/>
                        </Array>
                    </mxGeometry>
                </mxCell>
                <mxCell id="lolXnOuSbKDtdb3UZbx4-21" value="extend" style="endArrow=open;endSize=12;dashed=1;html=1;exitX=0.987;exitY=0.754;exitDx=0;exitDy=0;exitPerimeter=0;entryX=0;entryY=0.5;entryDx=0;entryDy=0;" edge="1" parent="1" source="lolXnOuSbKDtdb3UZbx4-5" target="lolXnOuSbKDtdb3UZbx4-9">
                    <mxGeometry width="160" relative="1" as="geometry">
                        <mxPoint x="84.99999999999818" y="245" as="sourcePoint"/>
                        <mxPoint x="180" y="260" as="targetPoint"/>
                    </mxGeometry>
                </mxCell>
                <mxCell id="lolXnOuSbKDtdb3UZbx4-22" value="extend" style="endArrow=open;endSize=12;dashed=1;html=1;exitX=1;exitY=0.5;exitDx=0;exitDy=0;entryX=0;entryY=0.5;entryDx=0;entryDy=0;" edge="1" parent="1" source="lolXnOuSbKDtdb3UZbx4-4" target="lolXnOuSbKDtdb3UZbx4-9">
                    <mxGeometry width="160" relative="1" as="geometry">
                        <mxPoint x="94.99999999999818" y="255" as="sourcePoint"/>
                        <mxPoint x="180" y="220" as="targetPoint"/>
                        <Array as="points"/>
                    </mxGeometry>
                </mxCell>
                <mxCell id="lolXnOuSbKDtdb3UZbx4-23" value="" style="endArrow=classic;html=1;" edge="1" parent="1">
                    <mxGeometry width="50" height="50" relative="1" as="geometry">
                        <mxPoint x="-174" y="180.5" as="sourcePoint"/>
                        <mxPoint x="-174" y="40" as="targetPoint"/>
                    </mxGeometry>
                </mxCell>
                <mxCell id="lolXnOuSbKDtdb3UZbx4-28" value="visiteur" style="shape=umlActor;verticalLabelPosition=bottom;verticalAlign=top;html=1;" vertex="1" parent="1">
                    <mxGeometry x="-190" y="-50" width="30" height="60" as="geometry"/>
                </mxCell>
                <mxCell id="lolXnOuSbKDtdb3UZbx4-29" value="utilisateur" style="shape=umlActor;verticalLabelPosition=bottom;verticalAlign=top;html=1;" vertex="1" parent="1">
                    <mxGeometry x="-190" y="200" width="30" height="60" as="geometry"/>
                </mxCell>
                <mxCell id="lolXnOuSbKDtdb3UZbx4-30" value="" style="endArrow=none;html=1;entryX=0.091;entryY=0.42;entryDx=0;entryDy=0;entryPerimeter=0;" edge="1" parent="1" source="lolXnOuSbKDtdb3UZbx4-29" target="lolXnOuSbKDtdb3UZbx4-31">
                    <mxGeometry width="50" height="50" relative="1" as="geometry">
                        <mxPoint x="-150" y="150" as="sourcePoint"/>
                        <mxPoint x="30" y="265" as="targetPoint"/>
                    </mxGeometry>
                </mxCell>
                <mxCell id="lolXnOuSbKDtdb3UZbx4-31" value="passer une commande&amp;nbsp;" style="ellipse;whiteSpace=wrap;html=1;" vertex="1" parent="1">
                    <mxGeometry x="20" y="300" width="110" height="50" as="geometry"/>
                </mxCell>
                <mxCell id="lolXnOuSbKDtdb3UZbx4-32" value="extend" style="endArrow=open;endSize=12;dashed=1;html=1;exitX=1;exitY=0.5;exitDx=0;exitDy=0;" edge="1" parent="1" source="lolXnOuSbKDtdb3UZbx4-31" target="lolXnOuSbKDtdb3UZbx4-9">
                    <mxGeometry width="160" relative="1" as="geometry">
                        <mxPoint x="-30" y="310" as="sourcePoint"/>
                        <mxPoint x="220" y="320" as="targetPoint"/>
                    </mxGeometry>
                </mxCell>
                <mxCell id="lolXnOuSbKDtdb3UZbx4-33" value="Admin" style="shape=umlActor;verticalLabelPosition=bottom;verticalAlign=top;html=1;" vertex="1" parent="1">
                    <mxGeometry x="-190" y="423" width="30" height="60" as="geometry"/>
                </mxCell>
            </root>
        </mxGraphModel>
    </diagram>
</mxfile>